<?xml version="1.0" encoding="UTF-8" standalone="no"?>
<!-- Created with Inkscape (http://www.inkscape.org/) -->

<svg
   width="1601.9095"
   height="900.85535"
   viewBox="0 0 423.83855 238.35131"
   version="1.1"
   id="svg1"
   inkscape:version="1.3 (0e150ed6c4, 2023-07-21)"
   sodipodi:docname="mainmenu.svg"
   xmlns:inkscape="http://www.inkscape.org/namespaces/inkscape"
   xmlns:sodipodi="http://sodipodi.sourceforge.net/DTD/sodipodi-0.dtd"
   xmlns:xlink="http://www.w3.org/1999/xlink"
   xmlns="http://www.w3.org/2000/svg"
   xmlns:svg="http://www.w3.org/2000/svg">
  <sodipodi:namedview
     id="namedview1"
     pagecolor="#505050"
     bordercolor="#ffffff"
     borderopacity="1"
     inkscape:showpageshadow="0"
     inkscape:pageopacity="0"
     inkscape:pagecheckerboard="1"
     inkscape:deskcolor="#505050"
     inkscape:document-units="px"
     showgrid="false"
     inkscape:zoom="0.5"
     inkscape:cx="335"
     inkscape:cy="445"
     inkscape:window-width="1920"
     inkscape:window-height="1009"
     inkscape:window-x="-8"
     inkscape:window-y="-8"
     inkscape:window-maximized="1"
     inkscape:current-layer="layer2">
    <inkscape:grid
       id="grid1"
       units="px"
       originx="0.9547903"
       originy="0.42766225"
       spacingx="0.26458333"
       spacingy="0.26458333"
       empcolor="#0099e5"
       empopacity="0.30196078"
       color="#0099e5"
       opacity="0.14901961"
       empspacing="5"
       dotted="false"
       gridanglex="30"
       gridanglez="30"
       visible="false" />
  </sodipodi:namedview>
  <defs
     id="defs1">
    <linearGradient
       id="linearGradient14"
       inkscape:collect="always">
      <stop
         style="stop-color:#9a9a9a;stop-opacity:1;"
         offset="0"
         id="stop14" />
      <stop
         style="stop-color:#808080;stop-opacity:1;"
         offset="0.46902651"
         id="stop16" />
      <stop
         style="stop-color:#4d4d4d;stop-opacity:1;"
         offset="1"
         id="stop15" />
    </linearGradient>
    <linearGradient
       id="linearGradient69"
       inkscape:collect="always">
      <stop
         style="stop-color:#2b47a2;stop-opacity:1;"
         offset="0.10148515"
         id="stop68" />
      <stop
         style="stop-color:#6d3ac3;stop-opacity:1;"
         offset="0.90346533"
         id="stop69" />
    </linearGradient>
    <linearGradient
       id="linearGradient66"
       inkscape:collect="always">
      <stop
         style="stop-color:#6d3ac3;stop-opacity:1;"
         offset="0.06683169"
         id="stop66" />
      <stop
         style="stop-color:#2b47a2;stop-opacity:1;"
         offset="0.89851487"
         id="stop67" />
    </linearGradient>
    <linearGradient
       id="linearGradient27"
       inkscape:collect="always">
      <stop
         style="stop-color:#1f1f87;stop-opacity:1;"
         offset="0"
         id="stop26" />
      <stop
         style="stop-color:#771880;stop-opacity:1;"
         offset="1"
         id="stop27" />
    </linearGradient>
    <linearGradient
       id="linearGradient21"
       inkscape:collect="always">
      <stop
         style="stop-color:#771880;stop-opacity:1;"
         offset="0"
         id="stop21" />
      <stop
         style="stop-color:#1f1f87;stop-opacity:1;"
         offset="1"
         id="stop22" />
    </linearGradient>
    <linearGradient
       id="linearGradient1"
       inkscape:collect="always">
      <stop
         style="stop-color:#0f0f29;stop-opacity:1;"
         offset="0"
         id="stop1" />
      <stop
         style="stop-color:#681550;stop-opacity:1;"
         offset="1"
         id="stop2" />
    </linearGradient>
    <linearGradient
       inkscape:collect="always"
       xlink:href="#linearGradient1"
       id="linearGradient2"
       x1="5.2916665"
       y1="5.2916665"
       x2="418.04166"
       y2="232.83331"
       gradientUnits="userSpaceOnUse" />
    <linearGradient
       inkscape:collect="always"
       xlink:href="#linearGradient27"
       id="linearGradient22"
       x1="207.66841"
       y1="-89.802559"
       x2="210.28766"
       y2="-92.421799"
       gradientUnits="userSpaceOnUse" />
    <linearGradient
       inkscape:collect="always"
       xlink:href="#linearGradient21"
       id="linearGradient23"
       x1="208.60385"
       y1="-90.738007"
       x2="209.53931"
       y2="-91.673447"
       gradientUnits="userSpaceOnUse" />
    <linearGradient
       inkscape:collect="always"
       xlink:href="#linearGradient66"
       id="linearGradient67"
       x1="105.0547"
       y1="68.303375"
       x2="323.44601"
       y2="68.303375"
       gradientUnits="userSpaceOnUse" />
    <linearGradient
       inkscape:collect="always"
       xlink:href="#linearGradient69"
       id="linearGradient68"
       x1="103.4494"
       y1="93.860954"
       x2="323.46658"
       y2="93.860954"
       gradientUnits="userSpaceOnUse" />
    <linearGradient
       inkscape:collect="always"
       xlink:href="#linearGradient14"
       id="linearGradient16"
       gradientUnits="userSpaceOnUse"
       gradientTransform="matrix(1.5058688,0.91937129,0,1.7643368,-25.354713,-76.420098)"
       x1="44.949497"
       y1="58.333691"
       x2="103.84884"
       y2="87.437897" />
  </defs>
  <g
     inkscape:label="Layer 1"
     inkscape:groupmode="layer"
     id="layer1"
     style="display:none"
     transform="translate(0.2526216,0.1131523)">
    <rect
       style="fill:url(#linearGradient2);stroke-width:0.264583"
       id="rect1"
       width="423.33331"
       height="238.12498"
       x="0"
       y="0"
       rx="1.3229166"
       ry="0.39596051" />
    <path
       style="font-weight:bold;font-size:28.2222px;font-family:'Louis George Cafe';-inkscape-font-specification:'Louis George Cafe Bold';letter-spacing:3.175px;fill:url(#linearGradient67);fill-opacity:1;stroke-width:0.264583"
       d="m 114.59068,58.188589 q 0,0 0.0276,0 3.88606,0 6.83506,3.031681 1.01975,1.185112 1.46072,2.039495 -0.11024,0.110243 -2.34266,1.295355 -0.38585,-0.689018 -1.10243,-1.570962 -2.14974,-2.149738 -4.85069,-2.149738 -2.72852,0 -4.85069,2.177299 -2.06706,2.315102 -2.06706,5.236541 0,3.417532 2.61827,5.842877 1.98437,1.598523 4.18923,1.598523 0.0827,0 0.27561,0 2.42535,0 4.51996,-1.984373 0.90951,-0.992187 1.29536,-1.736327 0.7717,0.413411 2.3151,1.212673 0,0.02756 0,0.08268 -0.46853,0.854383 -1.24023,1.819009 -3.00412,3.279728 -7.05555,3.279728 -4.02387,0 -7.02799,-3.224607 -2.53559,-3.059242 -2.53559,-6.807503 0,-0.02756 0,-0.110243 0,-3.803382 2.56315,-6.835064 2.97656,-3.197046 6.97287,-3.197046 z m 23.43214,0 q 0.0276,0 0.0551,0 3.99631,0 7.00043,3.114364 2.67339,3.059242 2.67339,6.972868 0,4.271915 -3.14192,7.4414 -2.949,2.645831 -6.5319,2.645831 -3.61046,0 -6.50433,-2.563149 -1.2678,-1.322915 -1.65365,-2.067055 -1.57096,-2.508028 -1.57096,-5.429467 0,-0.02756 0,-0.08268 0,-4.271915 3.19705,-7.468961 0.33073,-0.248047 0.93706,-0.74414 2.56315,-1.819009 5.53971,-1.819009 z m -7.02799,10.059671 q 0,3.279728 2.50803,5.677513 2.01193,1.763887 4.57508,1.763887 3.30729,0 5.56727,-2.921438 1.43316,-2.094617 1.43316,-4.382158 0,-0.05512 0,-0.165365 0,-2.838756 -1.95681,-5.098737 -2.20486,-2.287542 -5.04362,-2.287542 -3.16948,0 -5.45702,2.728514 -1.62609,2.149738 -1.62609,4.685326 z m 23.59751,-10.059671 q 0.6339,0 2.56315,0 0,0 0.0276,0.02756 0,3.086803 0,12.292091 0,2.23242 0.74414,3.279728 0.68902,1.185112 2.3151,1.736327 0.6339,0.165364 1.21268,0.165364 0.63389,0 1.95681,0 2.34266,0 3.66558,-2.149738 0.57877,-1.12999 0.57877,-2.673392 0,-4.216793 0,-12.65038 0,0 0.0551,-0.02756 0.63389,0 2.56314,0 0.0276,0 0.0551,0.02756 0,3.00412 0,11.988923 0,2.397784 -0.41342,3.445092 -0.85438,2.397785 -2.75607,3.638018 -1.6812,1.074869 -4.05143,1.074869 -0.44097,0 -1.32291,0 -3.16949,0 -5.07118,-1.87413 -0.85438,-0.854383 -1.29536,-1.681205 -0.88194,-1.763888 -0.88194,-3.775822 0,-4.271915 0,-12.815745 z m 23.6802,0 q 0.71658,0 2.86631,0 2.39779,3.610457 9.67382,14.414268 0.22049,0.330729 0.88195,1.350477 0,0 0,0 0,-3.941187 0,-15.737184 0,0 0.0276,-0.02756 0.66146,0 2.61827,0 0,0 0.0276,0.02756 0,5.043615 0,20.119342 0,0 -0.0276,0.02756 -0.71658,0 -2.86632,0 -0.74414,-1.047308 -5.51215,-8.213101 -1.70876,-2.508027 -5.09873,-7.551643 0,3.941186 0,15.737184 0,0 -0.0276,0.02756 -0.6339,0 -2.56315,0 -0.0276,0 -0.0551,-0.02756 0,-5.043616 0,-20.119342 z m 21.86118,0 q 3.33485,0 13.36696,0 0,0 0,0 0,0.661458 0,2.645831 0,0 0,0 -1.35048,0 -5.34679,0 0,4.382158 0,17.528632 0,0 0,0 -0.66145,0 -2.64583,0 -0.0276,0 -0.0276,0 0,-4.382158 0,-17.528632 -1.35048,0 -5.34678,0 0,0 0,0 0,-0.661458 0,-2.645831 z m 19.18779,0 q 1.65364,0 6.61458,0 3.19704,0 5.42946,2.397784 1.59853,1.929252 1.59853,4.244355 0,2.838756 -2.28754,4.905812 -1.21268,0.992187 -2.12218,1.267794 0,0.08268 2.67339,4.685326 0.52365,0.881944 1.5434,2.645832 0,0 0,0.02756 -0.79926,0 -3.14192,0 -0.0551,0 -0.74414,-1.322915 -2.949,-5.153859 -3.14193,-5.56727 -1.26779,0 -3.83094,0 0,1.708766 0,6.862625 0,0 -0.0276,0.02756 -0.6339,0 -2.56315,0 -0.0276,0 -0.0551,-0.02756 0,-5.043616 0,-20.119342 z m 2.59071,2.673392 q 0,1.984373 0,7.937494 1.04731,0 4.16167,0 1.98437,0 3.41753,-1.653645 0.79926,-1.10243 0.79926,-2.23242 0,-0.05512 0,-0.192925 0,-1.791448 -1.73632,-3.086803 -1.07487,-0.799262 -2.97656,-0.799262 -1.21267,0 -3.61046,0 -0.0276,0 -0.0551,0.02756 z m 15.30172,-2.673392 q 0.85438,0 3.36241,0 0.16537,0.137804 2.8112,3.858504 0.93706,1.322915 2.81119,3.941186 5.31923,-7.468961 5.59483,-7.79969 1.12999,0 3.38997,0 0,0 0,0 -1.90169,2.61827 -7.5792,10.445521 0,2.425346 0,9.701382 0,0 -0.0276,0.02756 -0.68902,0 -2.72851,0 -0.0276,0 -0.0551,-0.02756 0,-2.425346 0,-9.673821 0,-0.08268 -0.9095,-1.295355 -2.20486,-3.059242 -6.6697,-9.177727 z m 29.33015,-0.220486 q 0.0827,0 0.24804,0 1.57096,0 3.08681,0.74414 0.49609,0.248047 0.96462,0.606336 0.22049,0.165365 0.74414,0.633897 0.52366,0.578776 0.7717,0.937066 0.19293,0.303168 0.35829,0.606336 -0.79926,0.38585 -2.39778,1.185112 -0.11025,-0.248047 -0.52366,-0.716579 -1.26779,-1.350477 -3.14192,-1.350477 -1.84657,0 -2.97656,1.10243 -0.44097,0.440972 -0.55122,0.74414 -0.33073,0.606336 -0.33073,1.295355 0,0.02756 0,0.08268 0,0.964626 0.68902,1.48828 0.33073,0.248047 0.6339,0.385851 0.68902,0.413411 2.09462,0.799261 1.07487,0.303168 2.53559,0.606336 0.82682,0.248047 1.37803,0.523655 0.52366,0.248046 1.12999,0.689018 0.4961,0.440972 0.88195,0.909505 1.10243,1.48828 1.10243,3.279728 0,0 0,0.05512 0,1.763888 -1.07487,3.362411 -0.19293,0.275607 -0.66146,0.771701 -0.6339,0.578775 -1.01975,0.826822 -0.44097,0.275608 -0.96462,0.496093 -1.46072,0.606337 -3.00412,0.606337 -2.39779,0 -4.38216,-1.405598 -0.33073,-0.275608 -0.74414,-0.633897 -0.55122,-0.551215 -0.7717,-0.854383 -0.41341,-0.578776 -0.66146,-1.019748 -0.24805,-0.468532 -0.24805,-0.551215 0.79926,-0.38585 2.39779,-1.12999 0.22048,0.496093 0.60633,1.019748 0.19293,0.248046 0.55122,0.633897 0.52365,0.468532 0.85438,0.661457 1.12999,0.606337 2.34266,0.606337 0.0551,0 0.11025,0 1.21267,0 2.34266,-0.606337 0.30317,-0.192925 0.6339,-0.468532 0.38585,-0.385851 0.55121,-0.689019 0.46853,-0.799261 0.46853,-1.681205 0,-1.405598 -1.18511,-2.23242 -0.33073,-0.220486 -0.63389,-0.330729 -0.46854,-0.220486 -1.48828,-0.413411 -2.89388,-0.661458 -4.2168,-1.350477 -2.92144,-1.460719 -2.92144,-4.382158 0,-1.984373 1.2678,-3.555336 0.41341,-0.523654 0.88194,-0.881943 0.57878,-0.413411 0.99219,-0.633897 0.49609,-0.248047 1.15755,-0.468533 1.04731,-0.303168 2.12218,-0.303168 z m 13.2898,0.220486 q 0.6339,0 2.61827,0 0,0 0.0276,0 0,5.043616 0,20.174463 -0.0276,0 -0.0276,0 -0.66146,0 -2.61827,0 -0.0276,0 -0.0276,0 0,-5.043616 0,-20.174463 z m 10.58884,0 q 1.29535,0 5.23654,0 3.63802,0 6.58702,2.452906 1.15755,1.074869 1.48828,1.570962 2.01193,2.783635 2.01193,6.008242 0,0.02756 0,0.137804 0,4.023868 -3.05924,7.165793 -1.68121,1.515841 -3.27973,2.122177 -1.84657,0.716579 -3.61046,0.716579 -1.79145,0 -5.37434,0 -0.0276,0 -0.0551,-0.02756 0,-5.043616 0,-20.091782 z m 2.61827,2.700953 q 0,3.693139 0,14.827679 0.60634,0 2.42534,0 3.52778,0 5.84288,-2.61827 1.79145,-2.149738 1.79145,-4.79557 0,-2.728513 -1.84657,-4.878251 -1.07487,-1.157551 -1.68121,-1.433159 -0.55121,-0.38585 -1.70876,-0.799261 -1.04731,-0.330729 -2.70095,-0.330729 -0.68902,0 -2.09462,0 -0.0276,0 -0.0276,0.02756 z m 19.57363,-2.700953 q 2.70096,0 10.83138,0 0,0 0,0 0,0.661458 0,2.645831 -2.0395,0 -8.18554,0 0,1.543402 0,6.118485 1.59852,0 6.47677,0 0,0 0.0276,0.02756 0,0.633897 0,2.590709 -0.0276,0.02756 -0.0276,0.02756 -1.62608,0 -6.47677,0 0,1.515841 0,6.118485 2.03949,0 8.18554,0 0,0.661458 0,2.645831 0,0 0,0 -2.72852,0 -10.83138,0 -0.0276,0 -0.0276,0 0,-5.043616 0,-20.174463 z"
       id="text2"
       aria-label="COUNTRYSIDE" />
    <path
       d="m 103.48243,87.808613 q 0.94257,0 3.78684,0 1.75286,0 3.02616,1.38906 0.92604,1.174086 0.92604,2.497 0,0.04961 0,0.132291 0,1.604034 -1.28984,2.860802 -0.69453,0.578775 -1.35598,0.793749 0.85989,1.471741 2.54661,4.415225 0,0 -0.0165,0.01654 -0.33073,0 -1.33945,0 -0.0662,-0.06615 -0.99219,-1.736325 -0.46302,-0.826821 -1.38906,-2.480464 -0.69453,0 -2.77812,0 0,1.058331 0,4.200252 0,0 -0.0165,0.01654 -0.28112,0 -1.10794,0 -0.0165,0 -0.0331,-0.01654 0,-3.026166 0,-12.071591 z m 1.12447,1.15755 q 0,1.38906 0,5.572775 0.66146,0 2.66237,0 1.37252,0 2.29856,-1.174086 0.49609,-0.744139 0.49609,-1.57096 0,-0.03307 0,-0.08268 0,-1.256768 -1.0914,-2.166271 -0.77721,-0.578775 -1.71979,-0.578775 -0.87643,0 -2.64583,0 z m 34.90842,-1.15755 q 1.48828,0 6.00272,0 0,0 0.0165,0 0,0.297656 0,1.141013 -0.0165,0.01654 -0.0165,0.01654 -1.2237,0 -4.86171,0 0,1.074867 0,4.316007 0.97565,0 3.88606,0 0,0 0.0165,0.01654 0,0.28112 0,1.124477 -0.0165,0.01654 -0.0165,0.01654 -0.97565,0 -3.88606,0 0,1.074867 0,4.316007 1.20716,0 4.86171,0 0,0 0.0165,0.01654 0,0.28112 0,1.141014 -0.0165,0 -0.0165,0 -1.50481,0 -6.00272,0 -0.0165,0 -0.0165,0 0,-3.026166 0,-12.104664 z m 33.48628,0 q 1.90169,0 7.62329,0 0.0165,0 0.0165,0 0,0.297656 0,1.141013 0,0.01654 -0.0165,0.01654 -0.79375,0 -3.2246,0 0,2.72851 0,10.947114 0,0 -0.0165,0 -0.28112,0 -1.14101,0 0,0 0,0 0,-2.745047 0,-10.947114 -0.81029,0 -3.24114,0 0,0 0,-0.01654 0,-0.281119 0,-1.141013 z m 35.66909,0 q 0.94258,0 3.78684,0 1.75286,0 3.02617,1.38906 0.92604,1.174086 0.92604,2.497 0,0.04961 0,0.132291 0,1.604034 -1.28984,2.860802 -0.69453,0.578775 -1.35599,0.793749 0.85989,1.471741 2.54661,4.415225 0,0 -0.0165,0.01654 -0.33073,0 -1.33945,0 -0.0661,-0.06615 -0.99218,-1.736325 -0.46302,-0.826821 -1.38906,-2.480464 -0.69453,0 -2.77812,0 0,1.058331 0,4.200252 0,0 -0.0165,0.01654 -0.28112,0 -1.10794,0 -0.0165,0 -0.0331,-0.01654 0,-3.026166 0,-12.071591 z m 1.12448,1.15755 q 0,1.38906 0,5.572775 0.66145,0 2.66236,0 1.37252,0 2.29856,-1.174086 0.4961,-0.744139 0.4961,-1.57096 0,-0.03307 0,-0.08268 0,-1.256768 -1.09141,-2.166271 -0.77721,-0.578775 -1.71978,-0.578775 -0.87644,0 -2.64583,0 z m 34.90841,-1.15755 q 1.48828,0 6.00272,0 0,0 0.0165,0 0,0.297656 0,1.141013 -0.0165,0.01654 -0.0165,0.01654 -1.2237,0 -4.86171,0 0,1.074867 0,4.316007 0.97565,0 3.88606,0 0,0 0.0165,0.01654 0,0.28112 0,1.124477 -0.0165,0.01654 -0.0165,0.01654 -0.97565,0 -3.88606,0 0,1.074867 0,4.316007 1.20716,0 4.86171,0 0,0 0.0165,0.01654 0,0.28112 0,1.141014 -0.0165,0 -0.0165,0 -1.50482,0 -6.00272,0 -0.0165,0 -0.0165,0 0,-3.026166 0,-12.104664 z m 39.57169,0 q 0.0165,0 0.26458,0.628384 1.43867,3.737232 4.34908,11.19516 0.0331,0.06615 0.11576,0.28112 0,0 -0.0165,0 -0.31419,0 -1.24023,0 -0.0496,-0.06615 -0.74414,-1.868616 -0.34727,-0.92604 -0.39688,-0.97565 -1.96783,0 -5.9035,0 -0.0496,0.06615 -0.87643,2.232418 -0.21497,0.562238 -0.24805,0.611848 -0.41341,0 -1.20716,0 0,0 -0.0165,0 0,0 -0.0165,0 1.19062,-3.026166 4.72942,-12.104664 0.29765,0 1.20716,0 z m -0.61185,1.653643 q -0.62838,1.604033 -2.51354,6.432669 1.25677,0 5.02708,0 -0.62839,-1.604033 -2.51354,-6.432669 z m 32.16336,-1.653643 q 1.90169,0 7.62329,0 0.0165,0 0.0165,0 0,0.297656 0,1.141013 0,0.01654 -0.0165,0.01654 -0.79375,0 -3.2246,0 0,2.72851 0,10.947114 0,0 -0.0165,0 -0.28112,0 -1.14101,0 0,0 0,0 0,-2.745047 0,-10.947114 -0.81029,0 -3.24114,0 0,0 0,-0.01654 0,-0.281119 0,-1.141013 z"
       id="text3"
       style="font-size:16.9333px;font-family:'Louis George Cafe';-inkscape-font-specification:'Louis George Cafe';letter-spacing:26.4583px;fill:url(#linearGradient68);fill-opacity:1;stroke-width:0.264583"
       aria-label="RETREAT" />
    <path
       id="rect5"
       style="fill:#7e4fd0;fill-opacity:1;stroke-width:0.341848"
       d="m 100.84811,82.694693 v 1.058333 H 206.745 l -0.52917,-0.529167 0.52917,-0.529166 z m 116.72104,0 0.52916,0.529166 -0.52916,0.529167 h 105.89741 v -1.058333 z" />
    <path
       id="rect8"
       style="fill:none;stroke:url(#linearGradient22);stroke-width:0.79375;stroke-opacity:1"
       transform="rotate(45)"
       d="m 206.53159,-93.504204 h 4.66861 v 4.668612 h -4.66861 z" />
    <path
       id="rect8-2"
       style="fill:none;stroke:url(#linearGradient23);stroke-width:0.79375;stroke-opacity:1"
       transform="rotate(45)"
       d="m 207.95413,-92.081665 h 1.82354 v 1.823535 h -1.82354 z" />
  </g>
  <g
     inkscape:groupmode="layer"
     id="layer2"
     inkscape:label="Layer 2"
     transform="translate(0.2526216,0.1131523)">
    <path
       id="rect2"
       style="fill:#e4e4e4;fill-opacity:1;stroke:#ffffff;stroke-width:0.132349;stroke-opacity:1"
       d="M 0,0 423.33333,238.125 V 0 Z"
       inkscape:export-filename="rect2.png"
       inkscape:export-xdpi="96"
       inkscape:export-ydpi="96" />
    <path
       id="rect2-0"
       style="fill:#d9d9d9;fill-opacity:1;stroke:#4c4c4c;stroke-width:0.132349;stroke-opacity:1"
       d="M 423.33333,238.125 0,-4e-6 V 238.125 Z" />
    <path
       id="rect13-3"
       style="display:none;opacity:0.3;fill:url(#linearGradient16);stroke:none;stroke-width:0.466814;stroke-dasharray:none;stroke-opacity:1"
       d="M 86.680675,67.825457 42.333332,94.900682 V 146.25021 L 86.680675,173.32544 131.028,146.25023 V 94.900672 Z" />
  </g>
</svg>
