{
	"asset":{
		"generator":"Khronos glTF Blender I/O v3.6.28",
		"version":"2.0"
	},
	"scene":0,
	"scenes":[
		{
			"name":"Scene",
			"nodes":[
				0,
				1,
				2,
				3
			]
		}
	],
	"nodes":[
		{
			"mesh":0,
			"name":"Room1",
			"translation":[
				0,
				3,
				0
			]
		},
		{
			"mesh":1,
			"name":"Room2",
			"translation":[
				0,
				1,
				0
			]
		},
		{
			"mesh":2,
			"name":"Collision.001",
			"translation":[
				0,
				1,
				0
			]
		},
		{
			"mesh":3,
			"name":"Collision",
			"translation":[
				0,
				1,
				0
			]
		}
	],
	"materials":[
		{
			"doubleSided":true,
			"name":"Material",
			"pbrMetallicRoughness":{
				"baseColorTexture":{
					"index":0
				},
				"metallicFactor":0,
				"roughnessFactor":0.44999998807907104
			}
		},
		{
			"doubleSided":true,
			"name":"Material.001",
			"pbrMetallicRoughness":{
				"baseColorTexture":{
					"index":1
				},
				"metallicFactor":0,
				"roughnessFactor":0.44999998807907104
			}
		},
		{
			"doubleSided":true,
			"name":"Red",
			"pbrMetallicRoughness":{
				"baseColorTexture":{
					"index":2
				},
				"metallicFactor":0,
				"roughnessFactor":0.44999998807907104
			}
		},
		{
			"name":"Material.002",
			"pbrMetallicRoughness":{}
		}
	],
	"meshes":[
		{
			"name":"Plane.004",
			"primitives":[
				{
					"attributes":{
						"POSITION":0,
						"NORMAL":1,
						"TEXCOORD_0":2
					},
					"indices":3,
					"material":0
				},
				{
					"attributes":{
						"POSITION":4,
						"NORMAL":5,
						"TEXCOORD_0":6
					},
					"indices":7,
					"material":1
				},
				{
					"attributes":{
						"POSITION":8,
						"NORMAL":9,
						"TEXCOORD_0":10
					},
					"indices":11,
					"material":2
				},
				{
					"attributes":{
						"POSITION":12,
						"NORMAL":13,
						"TEXCOORD_0":14
					},
					"indices":15,
					"material":3
				},
				{
					"attributes":{
						"POSITION":16,
						"NORMAL":17,
						"TEXCOORD_0":18
					},
					"indices":19,
					"material":3
				}
			]
		},
		{
			"name":"Cube",
			"primitives":[
				{
					"attributes":{
						"POSITION":20,
						"NORMAL":21,
						"TEXCOORD_0":22
					},
					"indices":23,
					"material":1
				},
				{
					"attributes":{
						"POSITION":24,
						"NORMAL":25,
						"TEXCOORD_0":26
					},
					"indices":27,
					"material":2
				},
				{
					"attributes":{
						"POSITION":28,
						"NORMAL":29,
						"TEXCOORD_0":30
					},
					"indices":31,
					"material":3
				}
			]
		},
		{
			"name":"Cube.001",
			"primitives":[
				{
					"attributes":{
						"POSITION":32,
						"NORMAL":33,
						"TEXCOORD_0":34
					},
					"indices":35
				},
				{
					"attributes":{
						"POSITION":36,
						"NORMAL":37,
						"TEXCOORD_0":38
					},
					"indices":39
				}
			]
		},
		{
			"name":"Cube.002",
			"primitives":[
				{
					"attributes":{
						"POSITION":40,
						"NORMAL":41,
						"TEXCOORD_0":42
					},
					"indices":43
				}
			]
		}
	],
	"textures":[
		{
			"sampler":0,
			"source":0
		},
		{
			"sampler":0,
			"source":1
		},
		{
			"sampler":0,
			"source":2
		}
	],
	"images":[
		{
			"bufferView":4,
			"mimeType":"image/png",
			"name":"texture_08"
		},
		{
			"bufferView":9,
			"mimeType":"image/png",
			"name":"texture_01"
		},
		{
			"bufferView":14,
			"mimeType":"image/png",
			"name":"texture_03"
		}
	],
	"accessors":[
		{
			"bufferView":0,
			"componentType":5126,
			"count":328,
			"max":[
				0.4916667938232422,
				3,
				1.5
			],
			"min":[
				-0.4916665554046631,
				-3,
				-1.5
			],
			"type":"VEC3"
		},
		{
			"bufferView":1,
			"componentType":5126,
			"count":328,
			"type":"VEC3"
		},
		{
			"bufferView":2,
			"componentType":5126,
			"count":328,
			"type":"VEC2"
		},
		{
			"bufferView":3,
			"componentType":5123,
			"count":624,
			"type":"SCALAR"
		},
		{
			"bufferView":5,
			"componentType":5126,
			"count":126,
			"max":[
				12,
				4,
				3
			],
			"min":[
				-0.25,
				-3.25,
				-3.25
			],
			"type":"VEC3"
		},
		{
			"bufferView":6,
			"componentType":5126,
			"count":126,
			"type":"VEC3"
		},
		{
			"bufferView":7,
			"componentType":5126,
			"count":126,
			"type":"VEC2"
		},
		{
			"bufferView":8,
			"componentType":5123,
			"count":300,
			"type":"SCALAR"
		},
		{
			"bufferView":10,
			"componentType":5126,
			"count":36,
			"max":[
				11.880000114440918,
				-2.950000047683716,
				2.9000000953674316
			],
			"min":[
				0.11999988555908203,
				-3,
				-2.9000000953674316
			],
			"type":"VEC3"
		},
		{
			"bufferView":11,
			"componentType":5126,
			"count":36,
			"type":"VEC3"
		},
		{
			"bufferView":12,
			"componentType":5126,
			"count":36,
			"type":"VEC2"
		},
		{
			"bufferView":13,
			"componentType":5123,
			"count":60,
			"type":"SCALAR"
		},
		{
			"bufferView":15,
			"componentType":5126,
			"count":348,
			"max":[
				12.116666793823242,
				4.116666793823242,
				3.116666555404663
			],
			"min":[
				-0.4916665554046631,
				-3.299999952316284,
				-3.299999952316284
			],
			"type":"VEC3"
		},
		{
			"bufferView":16,
			"componentType":5126,
			"count":348,
			"type":"VEC3"
		},
		{
			"bufferView":17,
			"componentType":5126,
			"count":348,
			"type":"VEC2"
		},
		{
			"bufferView":18,
			"componentType":5123,
			"count":720,
			"type":"SCALAR"
		},
		{
			"bufferView":19,
			"componentType":5126,
			"count":168,
			"max":[
				0.37500011920928955,
				2.8707661628723145,
				1.3837499618530273
			],
			"min":[
				-0.37500011920928955,
				-2.994234085083008,
				-1.3837499618530273
			],
			"type":"VEC3"
		},
		{
			"bufferView":20,
			"componentType":5126,
			"count":168,
			"type":"VEC3"
		},
		{
			"bufferView":21,
			"componentType":5126,
			"count":168,
			"type":"VEC2"
		},
		{
			"bufferView":22,
			"componentType":5123,
			"count":264,
			"type":"SCALAR"
		},
		{
			"bufferView":23,
			"componentType":5126,
			"count":94,
			"max":[
				12,
				6,
				3.000000476837158
			],
			"min":[
				-12.200000762939453,
				-1.2000000476837158,
				-12.199999809265137
			],
			"type":"VEC3"
		},
		{
			"bufferView":24,
			"componentType":5126,
			"count":94,
			"type":"VEC3"
		},
		{
			"bufferView":25,
			"componentType":5126,
			"count":94,
			"type":"VEC2"
		},
		{
			"bufferView":26,
			"componentType":5123,
			"count":180,
			"type":"SCALAR"
		},
		{
			"bufferView":27,
			"componentType":5126,
			"count":40,
			"max":[
				11.880000114440918,
				-0.949999988079071,
				2.9025001525878906
			],
			"min":[
				-11.880000114440918,
				-1,
				-11.90250015258789
			],
			"type":"VEC3"
		},
		{
			"bufferView":28,
			"componentType":5126,
			"count":40,
			"type":"VEC3"
		},
		{
			"bufferView":29,
			"componentType":5126,
			"count":40,
			"type":"VEC2"
		},
		{
			"bufferView":30,
			"componentType":5123,
			"count":72,
			"type":"SCALAR"
		},
		{
			"bufferView":31,
			"componentType":5126,
			"count":148,
			"max":[
				12.116666793823242,
				6.116666793823242,
				3.116666793823242
			],
			"min":[
				-12.250000953674316,
				-1.2500001192092896,
				-12.25
			],
			"type":"VEC3"
		},
		{
			"bufferView":32,
			"componentType":5126,
			"count":148,
			"type":"VEC3"
		},
		{
			"bufferView":33,
			"componentType":5126,
			"count":148,
			"type":"VEC2"
		},
		{
			"bufferView":34,
			"componentType":5123,
			"count":252,
			"type":"SCALAR"
		},
		{
			"bufferView":35,
			"componentType":5126,
			"count":56,
			"max":[
				12,
				6,
				3
			],
			"min":[
				-0.25,
				-1.5,
				-3.25
			],
			"type":"VEC3"
		},
		{
			"bufferView":36,
			"componentType":5126,
			"count":56,
			"type":"VEC3"
		},
		{
			"bufferView":37,
			"componentType":5126,
			"count":56,
			"type":"VEC2"
		},
		{
			"bufferView":38,
			"componentType":5123,
			"count":120,
			"type":"SCALAR"
		},
		{
			"bufferView":39,
			"componentType":5126,
			"count":16,
			"max":[
				0.30000001192092896,
				5.050000190734863,
				1.3337428569793701
			],
			"min":[
				-0.25,
				-0.9500000476837158,
				-1.3337428569793701
			],
			"type":"VEC3"
		},
		{
			"bufferView":40,
			"componentType":5126,
			"count":16,
			"type":"VEC3"
		},
		{
			"bufferView":41,
			"componentType":5126,
			"count":16,
			"type":"VEC2"
		},
		{
			"bufferView":42,
			"componentType":5123,
			"count":24,
			"type":"SCALAR"
		},
		{
			"bufferView":43,
			"componentType":5126,
			"count":14,
			"max":[
				12,
				6,
				3
			],
			"min":[
				-11.699999809265137,
				-0.9500000476837158,
				-11.699999809265137
			],
			"type":"VEC3"
		},
		{
			"bufferView":44,
			"componentType":5126,
			"count":14,
			"type":"VEC3"
		},
		{
			"bufferView":45,
			"componentType":5126,
			"count":14,
			"type":"VEC2"
		},
		{
			"bufferView":46,
			"componentType":5123,
			"count":24,
			"type":"SCALAR"
		}
	],
	"bufferViews":[
		{
			"buffer":0,
			"byteLength":3936,
			"byteOffset":0,
			"target":34962
		},
		{
			"buffer":0,
			"byteLength":3936,
			"byteOffset":3936,
			"target":34962
		},
		{
			"buffer":0,
			"byteLength":2624,
			"byteOffset":7872,
			"target":34962
		},
		{
			"buffer":0,
			"byteLength":1248,
			"byteOffset":10496,
			"target":34963
		},
		{
			"buffer":0,
			"byteLength":637,
			"byteOffset":11744
		},
		{
			"buffer":0,
			"byteLength":1512,
			"byteOffset":12384,
			"target":34962
		},
		{
			"buffer":0,
			"byteLength":1512,
			"byteOffset":13896,
			"target":34962
		},
		{
			"buffer":0,
			"byteLength":1008,
			"byteOffset":15408,
			"target":34962
		},
		{
			"buffer":0,
			"byteLength":600,
			"byteOffset":16416,
			"target":34963
		},
		{
			"buffer":0,
			"byteLength":9868,
			"byteOffset":17016
		},
		{
			"buffer":0,
			"byteLength":432,
			"byteOffset":26884,
			"target":34962
		},
		{
			"buffer":0,
			"byteLength":432,
			"byteOffset":27316,
			"target":34962
		},
		{
			"buffer":0,
			"byteLength":288,
			"byteOffset":27748,
			"target":34962
		},
		{
			"buffer":0,
			"byteLength":120,
			"byteOffset":28036,
			"target":34963
		},
		{
			"buffer":0,
			"byteLength":1338,
			"byteOffset":28156
		},
		{
			"buffer":0,
			"byteLength":4176,
			"byteOffset":29496,
			"target":34962
		},
		{
			"buffer":0,
			"byteLength":4176,
			"byteOffset":33672,
			"target":34962
		},
		{
			"buffer":0,
			"byteLength":2784,
			"byteOffset":37848,
			"target":34962
		},
		{
			"buffer":0,
			"byteLength":1440,
			"byteOffset":40632,
			"target":34963
		},
		{
			"buffer":0,
			"byteLength":2016,
			"byteOffset":42072,
			"target":34962
		},
		{
			"buffer":0,
			"byteLength":2016,
			"byteOffset":44088,
			"target":34962
		},
		{
			"buffer":0,
			"byteLength":1344,
			"byteOffset":46104,
			"target":34962
		},
		{
			"buffer":0,
			"byteLength":528,
			"byteOffset":47448,
			"target":34963
		},
		{
			"buffer":0,
			"byteLength":1128,
			"byteOffset":47976,
			"target":34962
		},
		{
			"buffer":0,
			"byteLength":1128,
			"byteOffset":49104,
			"target":34962
		},
		{
			"buffer":0,
			"byteLength":752,
			"byteOffset":50232,
			"target":34962
		},
		{
			"buffer":0,
			"byteLength":360,
			"byteOffset":50984,
			"target":34963
		},
		{
			"buffer":0,
			"byteLength":480,
			"byteOffset":51344,
			"target":34962
		},
		{
			"buffer":0,
			"byteLength":480,
			"byteOffset":51824,
			"target":34962
		},
		{
			"buffer":0,
			"byteLength":320,
			"byteOffset":52304,
			"target":34962
		},
		{
			"buffer":0,
			"byteLength":144,
			"byteOffset":52624,
			"target":34963
		},
		{
			"buffer":0,
			"byteLength":1776,
			"byteOffset":52768,
			"target":34962
		},
		{
			"buffer":0,
			"byteLength":1776,
			"byteOffset":54544,
			"target":34962
		},
		{
			"buffer":0,
			"byteLength":1184,
			"byteOffset":56320,
			"target":34962
		},
		{
			"buffer":0,
			"byteLength":504,
			"byteOffset":57504,
			"target":34963
		},
		{
			"buffer":0,
			"byteLength":672,
			"byteOffset":58008,
			"target":34962
		},
		{
			"buffer":0,
			"byteLength":672,
			"byteOffset":58680,
			"target":34962
		},
		{
			"buffer":0,
			"byteLength":448,
			"byteOffset":59352,
			"target":34962
		},
		{
			"buffer":0,
			"byteLength":240,
			"byteOffset":59800,
			"target":34963
		},
		{
			"buffer":0,
			"byteLength":192,
			"byteOffset":60040,
			"target":34962
		},
		{
			"buffer":0,
			"byteLength":192,
			"byteOffset":60232,
			"target":34962
		},
		{
			"buffer":0,
			"byteLength":128,
			"byteOffset":60424,
			"target":34962
		},
		{
			"buffer":0,
			"byteLength":48,
			"byteOffset":60552,
			"target":34963
		},
		{
			"buffer":0,
			"byteLength":168,
			"byteOffset":60600,
			"target":34962
		},
		{
			"buffer":0,
			"byteLength":168,
			"byteOffset":60768,
			"target":34962
		},
		{
			"buffer":0,
			"byteLength":112,
			"byteOffset":60936,
			"target":34962
		},
		{
			"buffer":0,
			"byteLength":48,
			"byteOffset":61048,
			"target":34963
		}
	],
	"samplers":[
		{
			"magFilter":9729,
			"minFilter":9987
		}
	],
	"buffers":[
		{
			"byteLength":61096,
			"uri":"data:application/octet-stream;base64,"
		}
	]
}
